<?xml version="1.0" encoding="UTF-8"?>
<svg xmlns="http://www.w3.org/2000/svg" xmlns:xlink="http://www.w3.org/1999/xlink" width="64pt" height="64pt" viewBox="0 0 64 64" version="1.1">
<g id="surface6289814">
<path style=" stroke:none;fill-rule:nonzero;fill:rgb(58.431373%,64.705882%,65.098039%);fill-opacity:1;" d="M 0 32 C 0 14.328125 14.328125 0 32 0 C 49.671875 0 64 14.328125 64 32 C 64 49.671875 49.671875 64 32 64 C 14.328125 64 0 49.671875 0 32 Z M 32 62.71875 C 48.964844 62.71875 62.71875 48.964844 62.71875 32 C 62.71875 15.035156 48.964844 1.28125 32 1.28125 C 15.035156 1.28125 1.28125 15.035156 1.28125 32 C 1.28125 48.964844 15.035156 62.71875 32 62.71875 Z M 32 62.71875 "/>
<path style=" stroke:none;fill-rule:nonzero;fill:rgb(58.431373%,64.705882%,65.098039%);fill-opacity:1;" d="M 32 6.800781 C 29.121094 6.800781 26.800781 9.121094 26.800781 12 C 26.800781 14.878906 29.121094 17.199219 32 17.199219 C 34.878906 17.199219 37.199219 14.878906 37.199219 12 C 37.199219 9.121094 34.878906 6.800781 32 6.800781 Z M 32 9.199219 C 33.558594 9.199219 34.800781 10.441406 34.800781 12 C 34.800781 13.558594 33.558594 14.800781 32 14.800781 C 30.441406 14.800781 29.199219 13.558594 29.199219 12 C 29.199219 10.441406 30.441406 9.199219 32 9.199219 Z M 28.800781 18.800781 C 25.921875 18.800781 23.601562 21.121094 23.601562 24 L 23.601562 37.601562 C 23.601562 38.28125 24.121094 38.800781 24.800781 38.800781 C 25.480469 38.800781 26 38.28125 26 37.601562 L 26 24 C 26 22.441406 27.238281 21.199219 28.800781 21.199219 L 35.199219 21.199219 C 36.761719 21.199219 38 22.441406 38 24 L 38 36.398438 L 36.800781 36.398438 C 36.121094 36.398438 35.601562 36.921875 35.601562 37.601562 L 35.601562 56 C 35.601562 56.679688 36.121094 57.199219 36.800781 57.199219 C 37.480469 57.199219 38 56.679688 38 56 L 38 38.800781 L 39.199219 38.800781 C 39.878906 38.800781 40.398438 38.28125 40.398438 37.601562 L 40.398438 24 C 40.398438 21.121094 38.078125 18.800781 35.199219 18.800781 Z M 32 38.800781 C 31.320312 38.800781 30.800781 39.320312 30.800781 40 L 30.800781 56 C 30.800781 56.679688 31.320312 57.199219 32 57.199219 C 32.679688 57.199219 33.199219 56.679688 33.199219 56 L 33.199219 40 C 33.199219 39.320312 32.679688 38.800781 32 38.800781 Z M 27.199219 40 C 26.519531 40 26 40.519531 26 41.199219 L 26 55.960938 C 26 56.640625 26.519531 57.160156 27.199219 57.160156 C 27.878906 57.160156 28.398438 56.640625 28.398438 55.960938 L 28.398438 41.199219 C 28.398438 40.519531 27.878906 40 27.199219 40 Z M 27.199219 40 "/>
</g>
</svg>
