<?xml version="1.0" encoding="UTF-8"?>
<svg xmlns="http://www.w3.org/2000/svg" xmlns:xlink="http://www.w3.org/1999/xlink" width="64pt" height="64pt" viewBox="0 0 64 64" version="1.1">
<g id="surface4641181">
<path style=" stroke:none;fill-rule:nonzero;fill:rgb(20.392157%,59.607843%,85.882353%);fill-opacity:1;" d="M 35.136719 2.386719 C 34.917969 2.378906 34.699219 2.390625 34.480469 2.429688 L 5.304688 7.578125 C 3.390625 7.917969 2 9.574219 2 11.515625 L 2 50.484375 C 2 52.429688 3.390625 54.085938 5.304688 54.421875 L 34.480469 59.570312 C 34.652344 59.601562 34.828125 59.613281 35 59.613281 C 35.703125 59.613281 36.382812 59.371094 36.925781 58.914062 C 37.609375 58.34375 38 57.503906 38 56.613281 L 38 52 L 57 52 C 58.652344 52 60 50.652344 60 49 L 60 13 C 60 11.347656 58.652344 10 57 10 L 38 10 L 38 5.382812 C 38 4.496094 37.609375 3.65625 36.925781 3.085938 C 36.417969 2.65625 35.789062 2.414062 35.136719 2.386719 Z M 35.105469 4.390625 C 35.359375 4.414062 35.542969 4.535156 35.640625 4.617188 C 35.777344 4.730469 36 4.980469 36 5.382812 L 36 56.613281 C 36 57.019531 35.777344 57.269531 35.640625 57.382812 C 35.507812 57.496094 35.230469 57.671875 34.828125 57.601562 L 5.652344 52.453125 C 4.695312 52.285156 4 51.457031 4 50.484375 L 4 11.515625 C 4 10.542969 4.695312 9.714844 5.652344 9.546875 L 34.824219 4.398438 C 34.925781 4.382812 35.019531 4.378906 35.105469 4.390625 Z M 38 12 L 57 12 C 57.550781 12 58 12.449219 58 13 L 58 49 C 58 49.550781 57.550781 50 57 50 L 38 50 L 38 44 L 51 44 C 51.550781 44 52 43.554688 52 43 C 52 42.445312 51.550781 42 51 42 L 38 42 L 38 38 L 43.375 38 C 43.925781 38 44.375 37.554688 44.375 37 C 44.375 36.445312 43.925781 36 43.375 36 L 38 36 L 38 32 L 51 32 C 51.550781 32 52 31.554688 52 31 C 52 30.445312 51.550781 30 51 30 L 38 30 L 38 26 L 51 26 C 51.550781 26 52 25.554688 52 25 C 52 24.445312 51.550781 24 51 24 L 38 24 L 38 20 L 51 20 C 51.550781 20 52 19.554688 52 19 C 52 18.445312 51.550781 18 51 18 L 38 18 Z M 10.15625 20.011719 C 10.027344 19.992188 9.890625 19.996094 9.757812 20.03125 C 9.222656 20.164062 8.894531 20.707031 9.03125 21.242188 L 14.03125 41.242188 C 14.140625 41.683594 14.53125 41.992188 14.984375 42 C 15.4375 41.984375 15.839844 41.703125 15.964844 41.265625 L 20 26.734375 L 24.035156 41.265625 C 24.15625 41.703125 24.550781 42 25 42 L 25.015625 42 C 25.46875 41.992188 25.859375 41.683594 25.96875 41.242188 L 30.96875 21.242188 C 31.105469 20.707031 30.777344 20.164062 30.242188 20.03125 C 29.710938 19.894531 29.164062 20.21875 29.03125 20.757812 L 24.949219 37.078125 L 20.964844 22.734375 C 20.84375 22.300781 20.449219 22 20 22 C 19.550781 22 19.15625 22.300781 19.035156 22.734375 L 15.050781 37.078125 L 10.96875 20.757812 C 10.871094 20.355469 10.539062 20.070312 10.15625 20.011719 Z M 47 36 C 46.449219 36 46 36.445312 46 37 C 46 37.554688 46.449219 38 47 38 L 51 38 C 51.550781 38 52 37.554688 52 37 C 52 36.445312 51.550781 36 51 36 Z M 47 36 "/>
</g>
</svg>
